<?xml version="1.0"?>
<svg xmlns="http://www.w3.org/2000/svg" xmlns:xlink="http://www.w3.org/1999/xlink" id="Layer_1" data-name="Layer 1" viewBox="0 0 512 512" width="512" height="512"><defs><linearGradient id="linear-gradient" x1="256" y1="482.065" x2="256" y2="22.537" gradientUnits="userSpaceOnUse"><stop offset="0.322" stop-color="#a163f5"/><stop offset="0.466" stop-color="#b074ee"/><stop offset="0.752" stop-color="#d8a1dd"/><stop offset="0.898" stop-color="#efbad3"/></linearGradient><linearGradient id="linear-gradient-3" x1="236" y1="482.065" x2="236" y2="22.537" xlink:href="#linear-gradient"/><linearGradient id="linear-gradient-4" x1="311" y1="482.065" x2="311" y2="22.537" xlink:href="#linear-gradient"/><linearGradient id="linear-gradient-5" x1="206" y1="482.065" x2="206" y2="22.537" xlink:href="#linear-gradient"/><linearGradient id="linear-gradient-6" x1="281" y1="482.065" x2="281" y2="22.537" xlink:href="#linear-gradient"/><linearGradient id="linear-gradient-7" x1="256" y1="482.065" x2="256" y2="22.537" xlink:href="#linear-gradient"/></defs><title>open email </title><path d="M451.954,231.1c-.007-.063-.013-.126-.021-.189a6,6,0,0,0-.142-.691c-.01-.037-.022-.072-.033-.108q-.085-.293-.2-.576c-.024-.059-.048-.116-.074-.174-.082-.185-.172-.367-.273-.545-.018-.031-.033-.063-.052-.094a5.923,5.923,0,0,0-.411-.606c-.022-.029-.048-.056-.07-.085q-.189-.234-.4-.451c-.048-.05-.1-.1-.149-.147q-.2-.187-.417-.358c-.05-.04-.1-.082-.149-.12-.02-.014-.242-.031-.261-.045L386,181.542V89.476C386,74.463,374.2,62,359.184,62H152.816C137.805,62,126,74.463,126,89.476V173.76L62.34,227.19l-.1,0A6.076,6.076,0,0,0,60,231.78V417.234a32.391,32.391,0,0,0,8.856,22.27,7.048,7.048,0,0,0,.927,1.074A32.516,32.516,0,0,0,92.516,450H419.484A32.768,32.768,0,0,0,452,417.234V231.78c0-.039-.007-.077-.008-.115C451.988,231.475,451.976,231.286,451.954,231.1ZM301.7,327.633,440,242.519V417.234a20.363,20.363,0,0,1-2.876,10.422Zm133.072-96.24L386,261.411V196.322ZM152.816,74H359.184C367.578,74,374,81.08,374,89.476V268.8L266.567,335.041a19.874,19.874,0,0,1-21.221-.012L138,268.6V89.476C138,81.08,144.422,74,152.816,74ZM74.751,427.452A20.373,20.373,0,0,1,72,417.234v-175l138.02,85.165ZM126,261.2,76.824,230.854,126,189.447ZM92.516,438a20.451,20.451,0,0,1-8.792-2.132l137.3-101.622,17.922,11.027a32.348,32.348,0,0,0,34.118,0l17.625-10.855L428.034,435.989a20.457,20.457,0,0,1-8.55,2.011Z" style="fill:url(#linear-gradient)"/><path d="M256,165.294a66,66,0,1,0,66,66A66.215,66.215,0,0,0,256,165.294Zm0,120a54,54,0,1,1,54-54A54.062,54.062,0,0,1,256,285.294Z" style="fill:url(#linear-gradient)"/><path d="M190.5,117h91a6,6,0,0,0,0-12h-91a6,6,0,0,0,0,12Z" style="fill:url(#linear-gradient-3)"/><path d="M300.5,117h21a6,6,0,0,0,0-12h-21a6,6,0,0,0,0,12Z" style="fill:url(#linear-gradient-4)"/><path d="M190.5,147h31a6,6,0,0,0,0-12h-31a6,6,0,0,0,0,12Z" style="fill:url(#linear-gradient-5)"/><path d="M321.5,135h-81a6,6,0,0,0,0,12h81a6,6,0,0,0,0-12Z" style="fill:url(#linear-gradient-6)"/><path d="M276,207a6,6,0,0,0,0-12H236a6,6,0,0,0,0,12h11.446a11.247,11.247,0,0,1,9.4,5H236a6,6,0,0,0,0,12h20.844a11.247,11.247,0,0,1-9.4,5H236a5.968,5.968,0,0,0-4.121,10.316l28.608,27.026a6,6,0,0,0,8.242-8.73l-17.9-16.807A22.834,22.834,0,0,0,269.809,224H276a6,6,0,0,0,0-12h-6.185a12.9,12.9,0,0,0-2.082-5Z" style="fill:url(#linear-gradient-7)"/></svg>
