<svg height="512" viewBox="0 0 128 128" width="512" xmlns="http://www.w3.org/2000/svg" xmlns:xlink="http://www.w3.org/1999/xlink"><linearGradient id="a" gradientUnits="userSpaceOnUse" x1="107.224" x2="39.432" y1="113.384" y2="45.592"><stop offset="0" stop-color="#de5b5b"/><stop offset="1" stop-color="#ecbd2c"/></linearGradient><path d="m111.477 58.359v24.308a1.75 1.75 0 0 1 -3.5 0v-24.308a4.552 4.552 0 0 0 -4.546-4.546h-47.446a4.552 4.552 0 0 0 -4.546 4.546v1.558h8.684a1.75 1.75 0 0 1 0 3.5h-8.684v29.166h8.684a1.75 1.75 0 0 1 0 3.5h-8.684v9.717a4.551 4.551 0 0 0 4.546 4.546h47.446a4.551 4.551 0 0 0 4.546-4.546v-7.633a1.75 1.75 0 0 1 3.5 0v7.633a8.056 8.056 0 0 1 -8.046 8.046h-47.446a8.056 8.056 0 0 1 -8.046-8.046v-1.55h-13.958a1.75 1.75 0 1 1 0-3.5h13.958v-12.833h-13.958a1.75 1.75 0 1 1 0-3.5h13.958v-4.667h-21.566a1.75 1.75 0 0 1 0-3.5h21.566v-4.667h-13.958a1.75 1.75 0 1 1 0-3.5h13.958v-4.666h-21.566a1.75 1.75 0 0 1 0-3.5h21.566v-1.558a8.056 8.056 0 0 1 8.046-8.046h2.388v-14.828a21.323 21.323 0 0 1 1.054-6.637 1.75 1.75 0 1 1 3.326 1.088 17.824 17.824 0 0 0 -.88 5.549v14.828h3.886v-14.831a13.949 13.949 0 0 1 27.9 0v9.351a1.75 1.75 0 1 1 -3.5 0v-9.351a10.449 10.449 0 0 0 -20.9 0v14.831h28.284v-14.828a17.856 17.856 0 0 0 -17.835-17.835 17.659 17.659 0 0 0 -7.77 1.777 1.75 1.75 0 0 1 -1.527-3.15 21.141 21.141 0 0 1 9.3-2.127 21.359 21.359 0 0 1 21.335 21.335v14.828h2.388a8.056 8.056 0 0 1 8.043 8.046zm-1.75 29.474a1.75 1.75 0 0 0 -1.75 1.75v.917a1.75 1.75 0 0 0 3.5 0v-.917a1.751 1.751 0 0 0 -1.75-1.75zm-44.856-63.383a1.744 1.744 0 0 0 1.326-.607c.234-.27.474-.534.723-.789a1.75 1.75 0 0 0 -2.508-2.442q-.447.459-.865.946a1.749 1.749 0 0 0 1.324 2.892zm13.693 45.745a5.622 5.622 0 0 1 6.758 5.5 1.75 1.75 0 0 0 3.5 0 9.116 9.116 0 0 0 -18.075-1.687 9.184 9.184 0 0 0 3.1 8.668v8.214a5.858 5.858 0 0 0 11.716 0v-9.08a1.75 1.75 0 0 0 -3.5 0v9.082a2.358 2.358 0 0 1 -4.716 0v-9.082a1.751 1.751 0 0 0 -.773-1.452 5.616 5.616 0 0 1 1.987-10.163zm-60.291 1.388h8.1a1.75 1.75 0 1 0 0-3.5h-8.1a1.75 1.75 0 1 0 0 3.5zm0 16.334h8.1a1.75 1.75 0 1 0 0-3.5h-8.1a1.75 1.75 0 1 0 0 3.5zm8.1 12.833h-8.1a1.75 1.75 0 1 0 0 3.5h8.1a1.75 1.75 0 0 0 0-3.5zm33.75-24.5h-4.248a1.75 1.75 0 0 0 0 3.5h4.248a1.75 1.75 0 0 0 0-3.5zm-35.5 18.083a1.749 1.749 0 0 0 1.75 1.75h16.127a1.75 1.75 0 0 0 0-3.5h-16.127a1.75 1.75 0 0 0 -1.75 1.75z" fill="url(#a)"/></svg>