<?xml version="1.0"?>
<svg xmlns="http://www.w3.org/2000/svg" id="Layer_1" data-name="Layer 1" viewBox="0 0 512 512" width="512" height="512"><title>Security</title><g id="_Group_" data-name=" Group "><path d="M475,317.85c10.35,2.48,18,11.37,18,21.97v91.09c0,12.51-10.67,22.65-23.84,22.65H333.37c-13.17,0-23.84-10.14-23.84-22.65V339.82c0-12.5,10.67-22.65,23.84-22.65H469.16A25.5,25.5,0,0,1,475,317.85Z" style="fill:#00efd1"/><path d="M475,162.91V317.85a25.5,25.5,0,0,0-5.84-.68h-2.15V271.36a61.4,61.4,0,0,0-19.67-45.02,65.755,65.755,0,0,0-46.08-17.92c-36.25,0-65.75,28.24-65.75,62.94v45.81h-2.14c-13.17,0-23.84,10.15-23.84,22.65v16.86H49a30,30,0,0,1-30-30V162.91H475ZM184.05,262.78c0-16.28-12.4-29.48-27.71-29.48a27.3,27.3,0,0,0-23.19,13.35,27.3,27.3,0,0,0-23.19-13.35c-15.3,0-27.71,13.2-27.71,29.48s12.41,29.47,27.71,29.47a27.31,27.31,0,0,0,23.19-13.34,27.31,27.31,0,0,0,23.19,13.34C171.65,292.25,184.05,279.06,184.05,262.78Z" style="fill:#00acea"/><polygon points="475 104.56 475 162.91 474.4 162.91 19 162.91 19 104.56 474.4 104.56 475 104.56" style="fill:#00efd1"/><path d="M475,88.44v16.12H19V88.44a30,30,0,0,1,30-30H445A30,30,0,0,1,475,88.44Z" style="fill:#00acea"/><path d="M467.01,316.8v.37H335.51V271.36c0-34.7,29.5-62.94,65.75-62.94a65.755,65.755,0,0,1,46.08,17.92,61.4,61.4,0,0,1,19.67,45.02Z" style="fill:#00acea"/><path d="M156.34,233.3c15.31,0,27.71,13.2,27.71,29.48s-12.4,29.47-27.71,29.47a27.31,27.31,0,0,1-23.19-13.34,31.041,31.041,0,0,0,0-32.26A27.3,27.3,0,0,1,156.34,233.3Z" style="fill:#fedb41"/><ellipse cx="133.15" cy="262.78" rx="4.52" ry="16.13" style="fill:#fedb41"/><path d="M109.96,233.3a27.3,27.3,0,0,1,23.19,13.35,31.041,31.041,0,0,0,0,32.26,27.31,27.31,0,0,1-23.19,13.34c-15.3,0-27.71-13.19-27.71-29.47S94.66,233.3,109.96,233.3Z" style="fill:#f4b844"/><path d="M467.01,324.8a8,8,0,0,1-8-8V271.36a53.472,53.472,0,0,0-17.157-39.2,57.478,57.478,0,0,0-40.477-15.743h-.116c-31.843,0-57.75,24.646-57.75,54.94V316.8a8,8,0,0,1-16,0V271.36c0-39.1,33.053-70.909,73.692-70.94a73.279,73.279,0,0,1,51.626,20.1,69.318,69.318,0,0,1,22.182,50.84V316.8A8,8,0,0,1,467.01,324.8Z" style="fill:#fedb41"/><path d="M401.26,429.62a8,8,0,0,1-8-8V404.6a8,8,0,0,1,16,0v17.02A8,8,0,0,1,401.26,429.62Z" style="fill:#f4b844"/></g><path d="M416.16,391.61c0,7.82-6.67,14.16-14.9,14.16s-14.9-6.34-14.9-14.16,6.67-14.15,14.9-14.15S416.16,383.8,416.16,391.61Z" style="fill:#fedb41"/></svg>
